<svg xmlns="http://www.w3.org/2000/svg" >
    <symbol id='volume-up' viewBox='0 0 20 20'>
    <path d="M5 7H1v6h4l5 5V2L5 7zm11.36 9.36l-1.41-1.41a6.98 6.98 0 0 0 0-9.9l1.41-1.41a8.97 8.97 0 0 1 0 12.72zm-2.82-2.82l-1.42-1.42a3 3 0 0 0 0-4.24l1.42-1.42a4.98 4.98 0 0 1 0 7.08z"/>
    </symbol>
    <symbol id='volume-off' viewBox='0 0 20 20'>
    <path d="M15 8.59l-2.12-2.13-1.42 1.42L13.6 10l-2.13 2.12 1.42 1.42L15 11.4l2.12 2.13 1.42-1.42L16.4 10l2.13-2.12-1.42-1.42L15 8.6zM4 7H0v6h4l5 5V2L4 7z"/>
    </symbol>
    <symbol id='theme' viewBox='0 0 20 20'>
    <path d="M10 2v16a8 8 0 1 0 0-16zm0 18a10 10 0 1 1 0-20 10 10 0 0 1 0 20z"/>
    </symbol>
    <symbol id='eye' viewBox='0 0 20 20'>
    <path d="M.2 10a11 11 0 0 1 19.6 0A11 11 0 0 1 .2 10zm9.8 4a4 4 0 1 0 0-8 4 4 0 0 0 0 8zm0-2a2 2 0 1 1 0-4 2 2 0 0 1 0 4z"/>
    </symbol>
    <symbol id='stats' viewBox='0 0 20 20'>
    <path d="M1 10h3v10H1V10zM6 0h3v20H6V0zm5 8h3v12h-3V8zm5-4h3v16h-3V4z"/>
    </symbol>
    <symbol id='play' viewBox='0 0 20 20'>
    <path d="M4 4l12 6-12 6z"/>
    </symbol>
    <symbol id='user' viewBox='0 0 20 20'>
    <path d="M5 5a5 5 0 0 1 10 0v2A5 5 0 0 1 5 7V5zM0 16.68A19.9 19.9 0 0 1 10 14c3.64 0 7.06.97 10 2.68V20H0v-3.32z"/>
    </symbol>
    <symbol id='user-add' viewBox='0 0 20 20'>
    <path d="M2 6H0v2h2v2h2V8h2V6H4V4H2v2zm7 0a3 3 0 0 1 6 0v2a3 3 0 0 1-6 0V6zm11 9.14A15.93 15.93 0 0 0 12 13c-2.91 0-5.65.78-8 2.14V18h16v-2.86z"/>
    </symbol>
    <symbol id='user-group' viewBox='0 0 20 20'>
    <path d="M7 8a4 4 0 1 1 0-8 4 4 0 0 1 0 8zm0 1c2.15 0 4.2.4 6.1 1.09L12 16h-1.25L10 20H4l-.75-4H2L.9 10.09A17.93 17.93 0 0 1 7 9zm8.31.17c1.32.18 2.59.48 3.8.92L18 16h-1.25L16 20h-3.96l.37-2h1.25l1.65-8.83zM13 0a4 4 0 1 1-1.33 7.76 5.96 5.96 0 0 0 0-7.52C12.1.1 12.53 0 13 0z"/>
    </symbol>
    <symbol id='trophy' viewBox='0 0 20 20'>
    <path d="M15 9a3 3 0 0 0 3-3h2a5 5 0 0 1-5.1 5 5 5 0 0 1-3.9 3.9V17l5 2v1H4v-1l5-2v-2.1A5 5 0 0 1 5.1 11H5a5 5 0 0 1-5-5h2a3 3 0 0 0 3 3V4H2v2H0V2h5V0h10v2h5v4h-2V4h-3v5z"/>
    </symbol>
    <symbol id='pencil' viewBox='0 0 20 20'>
    <path d="M12.3 3.7l4 4L4 20H0v-4L12.3 3.7zm1.4-1.4L16 0l4 4-2.3 2.3-4-4z"/>
    </symbol>
    <symbol id='cheveron-outline-left' viewBox='0 0 20 20'>
    <path d="M10 20a10 10 0 1 1 0-20 10 10 0 0 1 0 20zm8-10a8 8 0 1 0-16 0 8 8 0 0 0 16 0zM7.46 9.3L11 5.75l1.41 1.41L9.6 10l2.82 2.83L11 14.24 6.76 10l.7-.7z"/>
    </symbol>
    <symbol id='cheveron-outline-right' viewBox='0 0 20 20'>
    <path d="M10 0a10 10 0 1 1 0 20 10 10 0 0 1 0-20zM2 10a8 8 0 1 0 16 0 8 8 0 0 0-16 0zm10.54.7L9 14.25l-1.41-1.41L10.4 10 7.6 7.17 9 5.76 13.24 10l-.7.7z"/>
    </symbol>
    <symbol id='cheveron-down' viewBox='0 0 20 20'>
    <path d="M9.293 12.95l.707.707L15.657 8l-1.414-1.414L10 10.828 5.757 6.586 4.343 8z"/>
    </symbol>
    <symbol id='checkmark-outline' viewBox='0 0 20 20'>
    <path d="M2.93 17.07A10 10 0 1 1 17.07 2.93 10 10 0 0 1 2.93 17.07zm12.73-1.41A8 8 0 1 0 4.34 4.34a8 8 0 0 0 11.32 11.32zM6.7 9.29L9 11.6l4.3-4.3 1.4 1.42L9 14.4l-3.7-3.7 1.4-1.42z"/>
    </symbol>
    <symbol id='close-outline' viewBox='0 0 20 20'>
    <path d="M2.93 17.07A10 10 0 1 1 17.07 2.93 10 10 0 0 1 2.93 17.07zm1.41-1.41A8 8 0 1 0 15.66 4.34 8 8 0 0 0 4.34 15.66zm9.9-8.49L11.41 10l2.83 2.83-1.41 1.41L10 11.41l-2.83 2.83-1.41-1.41L8.59 10 5.76 7.17l1.41-1.41L10 8.59l2.83-2.83 1.41 1.41z"/>
    </symbol>
    <symbol id='cross' viewBox='0 0 20 20'>
    <path d="M10 8.586L2.929 1.515 1.515 2.929 8.586 10l-7.071 7.071 1.414 1.414L10 11.414l7.071 7.071 1.414-1.414L11.414 10l7.071-7.071-1.414-1.414L10 8.586z"/>
    </symbol>
    <symbol id='add' viewBox='0 0 20 20'>
    <path d="M11 9V5H9v4H5v2h4v4h2v-4h4V9h-4zm-1 11a10 10 0 1 1 0-20 10 10 0 0 1 0 20z"/>
    </symbol>
    <symbol id='search' viewBox='0 0 20 20'>
    <path d="M12.9 14.32a8 8 0 1 1 1.41-1.41l5.35 5.33-1.42 1.42-5.33-5.34zM8 14A6 6 0 1 0 8 2a6 6 0 0 0 0 12z"/>
    </symbol>
</svg>