<svg xmlns="http://www.w3.org/2000/svg" >
    <symbol id='volume-up' viewBox='0 0 20 20'>
    <path d="M5 7H1v6h4l5 5V2L5 7zm11.36 9.36l-1.41-1.41a6.98 6.98 0 0 0 0-9.9l1.41-1.41a8.97 8.97 0 0 1 0 12.72zm-2.82-2.82l-1.42-1.42a3 3 0 0 0 0-4.24l1.42-1.42a4.98 4.98 0 0 1 0 7.08z"/>
    </symbol>
    <symbol id='volume-off' viewBox='0 0 20 20'>
    <path d="M15 8.59l-2.12-2.13-1.42 1.42L13.6 10l-2.13 2.12 1.42 1.42L15 11.4l2.12 2.13 1.42-1.42L16.4 10l2.13-2.12-1.42-1.42L15 8.6zM4 7H0v6h4l5 5V2L4 7z"/>
    </symbol>
    <symbol id='theme' viewBox='0 0 20 20'>
    <path d="M10 2v16a8 8 0 1 0 0-16zm0 18a10 10 0 1 1 0-20 10 10 0 0 1 0 20z"/>
    </symbol>
    <symbol id='eye' viewBox='0 0 20 20'>
    <path d="M.2 10a11 11 0 0 1 19.6 0A11 11 0 0 1 .2 10zm9.8 4a4 4 0 1 0 0-8 4 4 0 0 0 0 8zm0-2a2 2 0 1 1 0-4 2 2 0 0 1 0 4z"/>
    </symbol>
    <symbol id='stats' viewBox='0 0 20 20'>
    <path d="M1 10h3v10H1V10zM6 0h3v20H6V0zm5 8h3v12h-3V8zm5-4h3v16h-3V4z"/>
    </symbol>
    <symbol id='play' viewBox='0 0 20 20'>
    <path d="M4 4l12 6-12 6z"/>
    </symbol>
    <symbol id='user' viewBox='0 0 20 20'>
    <path d="M5 5a5 5 0 0 1 10 0v2A5 5 0 0 1 5 7V5zM0 16.68A19.9 19.9 0 0 1 10 14c3.64 0 7.06.97 10 2.68V20H0v-3.32z"/>
    </symbol>
    <symbol id='user-add' viewBox='0 0 20 20'>
    <path d="M2 6H0v2h2v2h2V8h2V6H4V4H2v2zm7 0a3 3 0 0 1 6 0v2a3 3 0 0 1-6 0V6zm11 9.14A15.93 15.93 0 0 0 12 13c-2.91 0-5.65.78-8 2.14V18h16v-2.86z"/>
    </symbol>
    <symbol id='user-group' viewBox='0 0 20 20'>
    <path d="M7 8a4 4 0 1 1 0-8 4 4 0 0 1 0 8zm0 1c2.15 0 4.2.4 6.1 1.09L12 16h-1.25L10 20H4l-.75-4H2L.9 10.09A17.93 17.93 0 0 1 7 9zm8.31.17c1.32.18 2.59.48 3.8.92L18 16h-1.25L16 20h-3.96l.37-2h1.25l1.65-8.83zM13 0a4 4 0 1 1-1.33 7.76 5.96 5.96 0 0 0 0-7.52C12.1.1 12.53 0 13 0z"/>
    </symbol>
    <symbol id='trophy' viewBox='0 0 20 20'>
    <path d="M15 9a3 3 0 0 0 3-3h2a5 5 0 0 1-5.1 5 5 5 0 0 1-3.9 3.9V17l5 2v1H4v-1l5-2v-2.1A5 5 0 0 1 5.1 11H5a5 5 0 0 1-5-5h2a3 3 0 0 0 3 3V4H2v2H0V2h5V0h10v2h5v4h-2V4h-3v5z"/>
    </symbol>
    <symbol id='pencil' viewBox='0 0 20 20'>
    <path d="M12.3 3.7l4 4L4 20H0v-4L12.3 3.7zm1.4-1.4L16 0l4 4-2.3 2.3-4-4z"/>
    </symbol>
    <symbol id='cheveron-outline-left' viewBox='0 0 20 20'>
    <path d="M10 20a10 10 0 1 1 0-20 10 10 0 0 1 0 20zm8-10a8 8 0 1 0-16 0 8 8 0 0 0 16 0zM7.46 9.3L11 5.75l1.41 1.41L9.6 10l2.82 2.83L11 14.24 6.76 10l.7-.7z"/>
    </symbol>
    <symbol id='cheveron-outline-right' viewBox='0 0 20 20'>
    <path d="M10 0a10 10 0 1 1 0 20 10 10 0 0 1 0-20zM2 10a8 8 0 1 0 16 0 8 8 0 0 0-16 0zm10.54.7L9 14.25l-1.41-1.41L10.4 10 7.6 7.17 9 5.76 13.24 10l-.7.7z"/>
    </symbol>
    <symbol id='cheveron-down' viewBox='0 0 20 20'>
    <path d="M9.293 12.95l.707.707L15.657 8l-1.414-1.414L10 10.828 5.757 6.586 4.343 8z"/>
    </symbol>
    <symbol id='checkmark-outline' viewBox='0 0 20 20'>
    <path d="M2.93 17.07A10 10 0 1 1 17.07 2.93 10 10 0 0 1 2.93 17.07zm12.73-1.41A8 8 0 1 0 4.34 4.34a8 8 0 0 0 11.32 11.32zM6.7 9.29L9 11.6l4.3-4.3 1.4 1.42L9 14.4l-3.7-3.7 1.4-1.42z"/>
    </symbol>
    <symbol id='close-outline' viewBox='0 0 20 20'>
    <path d="M2.93 17.07A10 10 0 1 1 17.07 2.93 10 10 0 0 1 2.93 17.07zm1.41-1.41A8 8 0 1 0 15.66 4.34 8 8 0 0 0 4.34 15.66zm9.9-8.49L11.41 10l2.83 2.83-1.41 1.41L10 11.41l-2.83 2.83-1.41-1.41L8.59 10 5.76 7.17l1.41-1.41L10 8.59l2.83-2.83 1.41 1.41z"/>
    </symbol>
    <symbol id='cross' viewBox='0 0 20 20'>
    <path d="M10 8.586L2.929 1.515 1.515 2.929 8.586 10l-7.071 7.071 1.414 1.414L10 11.414l7.071 7.071 1.414-1.414L11.414 10l7.071-7.071-1.414-1.414L10 8.586z"/>
    </symbol>
    <symbol id='add' viewBox='0 0 20 20'>
    <path d="M11 9V5H9v4H5v2h4v4h2v-4h4V9h-4zm-1 11a10 10 0 1 1 0-20 10 10 0 0 1 0 20z"/>
    </symbol>
    <symbol id='search' viewBox='0 0 20 20'>
    <path d="M12.9 14.32a8 8 0 1 1 1.41-1.41l5.35 5.33-1.42 1.42-5.33-5.34zM8 14A6 6 0 1 0 8 2a6 6 0 0 0 0 12z"/>
    </symbol>
    <symbol id='load' viewBox='0 0 16 16'>
    <path d="M16 8c-0.020-1.045-0.247-2.086-0.665-3.038-0.417-0.953-1.023-1.817-1.766-2.53s-1.624-1.278-2.578-1.651c-0.953-0.374-1.978-0.552-2.991-0.531-1.013 0.020-2.021 0.24-2.943 0.646-0.923 0.405-1.758 0.992-2.449 1.712s-1.237 1.574-1.597 2.497c-0.361 0.923-0.533 1.914-0.512 2.895 0.020 0.981 0.234 1.955 0.627 2.847 0.392 0.892 0.961 1.7 1.658 2.368s1.523 1.195 2.416 1.543c0.892 0.348 1.851 0.514 2.799 0.493 0.949-0.020 1.89-0.227 2.751-0.608 0.862-0.379 1.642-0.929 2.287-1.604s1.154-1.472 1.488-2.335c0.204-0.523 0.342-1.069 0.415-1.622 0.019 0.001 0.039 0.002 0.059 0.002 0.552 0 1-0.448 1-1 0-0.028-0.001-0.056-0.004-0.083h0.004zM14.411 10.655c-0.367 0.831-0.898 1.584-1.55 2.206s-1.422 1.112-2.254 1.434c-0.832 0.323-1.723 0.476-2.608 0.454-0.884-0.020-1.759-0.215-2.56-0.57-0.801-0.354-1.526-0.867-2.125-1.495s-1.071-1.371-1.38-2.173c-0.31-0.801-0.457-1.66-0.435-2.512s0.208-1.694 0.551-2.464c0.342-0.77 0.836-1.468 1.441-2.044s1.321-1.029 2.092-1.326c0.771-0.298 1.596-0.438 2.416-0.416s1.629 0.202 2.368 0.532c0.74 0.329 1.41 0.805 1.963 1.387s0.988 1.27 1.272 2.011c0.285 0.74 0.418 1.532 0.397 2.32h0.004c-0.002 0.027-0.004 0.055-0.004 0.083 0 0.516 0.39 0.94 0.892 0.994-0.097 0.544-0.258 1.075-0.481 1.578z"/>
    </symbol>
</svg>